<svg xmlns="http://www.w3.org/2000/svg" width="805" height="600"><rect width="805" height="600" x="0" y="0" fill="#FFFFFF" id="background"/><g transform="translate(150,10)" id="viz"><g id="axis"><g transform="translate(0,540)" fill="none" font-size="10" font-family="sans-serif" text-anchor="middle"><path class="domain" stroke="currentColor" d="M0,6V0H605V6"/><g class="tick" opacity="1" transform="translate(0,0)"><line stroke="currentColor" y2="6"/><text fill="currentColor" y="9" dy="0.71em">April</text></g><g class="tick" opacity="1" transform="translate(45.949367088607595,0)"><line stroke="currentColor" y2="6"/><text fill="currentColor" y="9" dy="0.71em">May</text></g><g class="tick" opacity="1" transform="translate(93.43037974683544,0)"><line stroke="currentColor" y2="6"/><text fill="currentColor" y="9" dy="0.71em">June</text></g><g class="tick" opacity="1" transform="translate(139.37974683544303,0)"><line stroke="currentColor" y2="6"/><text fill="currentColor" y="9" dy="0.71em">July</text></g><g class="tick" opacity="1" transform="translate(186.86075949367088,0)"><line stroke="currentColor" y2="6"/><text fill="currentColor" y="9" dy="0.71em">August</text></g><g class="tick" opacity="1" transform="translate(234.34177215189874,0)"><line stroke="currentColor" y2="6"/><text fill="currentColor" y="9" dy="0.71em">September</text></g><g class="tick" opacity="1" transform="translate(280.29113924050637,0)"><line stroke="currentColor" y2="6"/><text fill="currentColor" y="9" dy="0.71em">October</text></g><g class="tick" opacity="1" transform="translate(327.7721518987342,0)"><line stroke="currentColor" y2="6"/><text fill="currentColor" y="9" dy="0.71em">November</text></g><g class="tick" opacity="1" transform="translate(373.72151898734177,0)"><line stroke="currentColor" y2="6"/><text fill="currentColor" y="9" dy="0.71em">December</text></g><g class="tick" opacity="1" transform="translate(421.20253164556965,0)"><line stroke="currentColor" y2="6"/><text fill="currentColor" y="9" dy="0.71em">2026</text></g><g class="tick" opacity="1" transform="translate(468.6835443037975,0)"><line stroke="currentColor" y2="6"/><text fill="currentColor" y="9" dy="0.71em">February</text></g><g class="tick" opacity="1" transform="translate(511.56962025316454,0)"><line stroke="currentColor" y2="6"/><text fill="currentColor" y="9" dy="0.71em">March</text></g><g class="tick" opacity="1" transform="translate(559.0506329113924,0)"><line stroke="currentColor" y2="6"/><text fill="currentColor" y="9" dy="0.71em">April</text></g><g class="tick" opacity="1" transform="translate(605,0)"><line stroke="currentColor" y2="6"/><text fill="currentColor" y="9" dy="0.71em">May</text></g><text x="605" dy="-5" text-anchor="end" style="font-family: Arial, sans-serif; font-size: 12px; fill: rgb(123, 123, 123); font-weight: bold;">created_at</text></g><g fill="none" font-size="10" font-family="sans-serif" text-anchor="end"><path class="domain" stroke="currentColor" d="M0,0V540"/><g class="tick" opacity="1" transform="translate(0,45)"><line stroke="currentColor" x2="605" style="stroke: rgb(204, 204, 204);"/><text fill="currentColor" x="-3" dy="0.32em">fury_partners-middleend</text></g><g class="tick" opacity="1" transform="translate(0,135)"><line stroke="currentColor" x2="605" style="stroke: rgb(204, 204, 204);"/><text fill="currentColor" x="-3" dy="0.32em">fury_partners-providers-api</text></g><g class="tick" opacity="1" transform="translate(0,225)"><line stroke="currentColor" x2="605" style="stroke: rgb(204, 204, 204);"/><text fill="currentColor" x="-3" dy="0.32em">fury_partners-subscription-api</text></g><g class="tick" opacity="1" transform="translate(0,315)"><line stroke="currentColor" x2="605" style="stroke: rgb(204, 204, 204);"/><text fill="currentColor" x="-3" dy="0.32em">fury_loyal-communications</text></g><g class="tick" opacity="1" transform="translate(0,405)"><line stroke="currentColor" x2="605" style="stroke: rgb(204, 204, 204);"/><text fill="currentColor" x="-3" dy="0.32em">fury_loyal-whitelist-api</text></g><g class="tick" opacity="1" transform="translate(0,495)"><line stroke="currentColor" x2="605" style="stroke: rgb(204, 204, 204);"/><text fill="currentColor" x="-3" dy="0.32em">fury_connectivity-core</text></g><text x="4" text-anchor="start" dominant-baseline="hanging" style="font-family: Arial, sans-serif; font-size: 12px; fill: rgb(123, 123, 123); font-weight: bold;">repo</text></g></g><g id="visualization"><g id="fury_partners-middleend"><g id="circles"><circle id="" cx="550.5617219843531" cy="44.81360861508416" r="0.5" style="fill: rgb(214, 39, 40);"/><circle id="" cx="547.8172159928095" cy="43.60190609836506" r="0.5" style="fill: rgb(214, 39, 40);"/><circle id="" cx="548.1400493646091" cy="46.584485286550795" r="0.5" style="fill: rgb(214, 39, 40);"/><circle id="" cx="506.9746835443038" cy="45" r="2.0212174611483276" style="fill: rgb(214, 39, 40);"/><circle id="" cx="405.8860759493671" cy="45" r="6.191874550395142" style="fill: rgb(214, 39, 40);"/><circle id="" cx="389.0379746835443" cy="45" r="3.134825932069838" style="fill: rgb(214, 39, 40);"/><circle id="" cx="367.59493670886076" cy="45" r="0.5" style="fill: rgb(214, 39, 40);"/><circle id="" cx="352.66199264781534" cy="45" r="3.5424349222966556" style="fill: rgb(214, 39, 40);"/><circle id="" cx="343.57831205558296" cy="45" r="3.5424349222966556" style="fill: rgb(214, 39, 40);"/><circle id="" cx="330.56478296908557" cy="45" r="7.471094164200756" style="fill: rgb(214, 39, 40);"/><circle id="" cx="261.9113924050633" cy="45" r="5.310511993647416" style="fill: rgb(214, 39, 40);"/><circle id="" cx="117.9367088607595" cy="45" r="5.984827557301444" style="fill: rgb(214, 39, 40);"/><circle id="" cx="78.1139240506329" cy="45" r="2.0212174611483276" style="fill: rgb(214, 39, 40);"/><circle id="" cx="44.70358373926619" cy="45" r="3.9015456516873064" style="fill: rgb(214, 39, 40);"/><circle id="" cx="38.302038087578886" cy="45" r="0.5" style="fill: rgb(214, 39, 40);"/><circle id="" cx="10.721518987341772" cy="45" r="2.0212174611483276" style="fill: rgb(214, 39, 40);"/></g><g id="labels"><g id="" transform="translate(550.5617219843531,44.81360861508416)"><text x="0" y="0" text-anchor="middle" dominant-baseline="text-before-edge" transform="translate(0,0)"/></g><g id="" transform="translate(547.8172159928095,43.60190609836506)"><text x="0" y="0" text-anchor="middle" dominant-baseline="text-before-edge" transform="translate(0,0)"/></g><g id="" transform="translate(548.1400493646091,46.584485286550795)"><text x="0" y="0" text-anchor="middle" dominant-baseline="text-before-edge" transform="translate(0,0)"/></g><g id="" transform="translate(506.9746835443038,45)"><text x="0" y="0" text-anchor="middle" dominant-baseline="text-before-edge" transform="translate(0,0)"/></g><g id="" transform="translate(405.8860759493671,45)"><text x="0" y="0" text-anchor="middle" dominant-baseline="text-before-edge" transform="translate(0,0)"/></g><g id="" transform="translate(389.0379746835443,45)"><text x="0" y="0" text-anchor="middle" dominant-baseline="text-before-edge" transform="translate(0,0)"/></g><g id="" transform="translate(367.59493670886076,45)"><text x="0" y="0" text-anchor="middle" dominant-baseline="text-before-edge" transform="translate(0,0)"/></g><g id="" transform="translate(352.66199264781534,45)"><text x="0" y="0" text-anchor="middle" dominant-baseline="text-before-edge" transform="translate(0,0)"/></g><g id="" transform="translate(343.57831205558296,45)"><text x="0" y="0" text-anchor="middle" dominant-baseline="text-before-edge" transform="translate(0,0)"/></g><g id="" transform="translate(330.56478296908557,45)"><text x="0" y="0" text-anchor="middle" dominant-baseline="text-before-edge" transform="translate(0,0)"/></g><g id="" transform="translate(261.9113924050633,45)"><text x="0" y="0" text-anchor="middle" dominant-baseline="text-before-edge" transform="translate(0,0)"/></g><g id="" transform="translate(117.9367088607595,45)"><text x="0" y="0" text-anchor="middle" dominant-baseline="text-before-edge" transform="translate(0,0)"/></g><g id="" transform="translate(78.1139240506329,45)"><text x="0" y="0" text-anchor="middle" dominant-baseline="text-before-edge" transform="translate(0,0)"/></g><g id="" transform="translate(44.70358373926619,45)"><text x="0" y="0" text-anchor="middle" dominant-baseline="text-before-edge" transform="translate(0,0)"/></g><g id="" transform="translate(38.302038087578886,45)"><text x="0" y="0" text-anchor="middle" dominant-baseline="text-before-edge" transform="translate(0,0)"/></g><g id="" transform="translate(10.721518987341772,45)"><text x="0" y="0" text-anchor="middle" dominant-baseline="text-before-edge" transform="translate(0,0)"/></g></g></g><g id="fury_partners-providers-api"><g id="circles"><circle id="" cx="451.8354430379747" cy="135" r="3.9015456516873064" style="fill: rgb(148, 103, 189);"/><circle id="" cx="442.992036649042" cy="133.50948381628595" r="0.5" style="fill: rgb(148, 103, 189);"/><circle id="" cx="442.9853348633295" cy="136.5095814433108" r="0.5" style="fill: rgb(148, 103, 189);"/><circle id="" cx="437.5571818073438" cy="134.99749094155015" r="3.134825932069838" style="fill: rgb(148, 103, 189);"/><circle id="" cx="416.6075949367089" cy="135" r="4.226206567625496" style="fill: rgb(148, 103, 189);"/><circle id="" cx="401.2911392405063" cy="135" r="6.772140271848485" style="fill: rgb(148, 103, 189);"/><circle id="" cx="336.76595744443057" cy="135" r="7.303091303374613" style="fill: rgb(148, 103, 189);"/><circle id="" cx="322.93910509283916" cy="135" r="4.524763092247536" style="fill: rgb(148, 103, 189);"/><circle id="" cx="311.103986275042" cy="135" r="5.310511993647416" style="fill: rgb(148, 103, 189);"/><circle id="" cx="299.5672677137691" cy="135" r="4.226206567625496" style="fill: rgb(148, 103, 189);"/><circle id="" cx="268.4725779249604" cy="135.02941874983983" r="8.692006735774473" style="fill: rgb(148, 103, 189);"/><circle id="" cx="258.5802877613804" cy="129.79517609401327" r="0.5" style="fill: rgb(148, 103, 189);"/><circle id="" cx="250.47990551246875" cy="135.31621847897762" r="7.303091303374613" style="fill: rgb(148, 103, 189);"/><circle id="" cx="241.0418906111935" cy="132.67837073644884" r="0.5" style="fill: rgb(148, 103, 189);"/><circle id="" cx="237.18546918689484" cy="128.57009903820418" r="3.134825932069838" style="fill: rgb(148, 103, 189);"/><circle id="" cx="236.52892134549222" cy="138.74750412957246" r="5.063652383444984" style="fill: rgb(148, 103, 189);"/><circle id="" cx="224.51864975228344" cy="134.22566001811956" r="5.769651864139676" style="fill: rgb(148, 103, 189);"/><circle id="" cx="171.10999870766267" cy="135" r="3.134825932069838" style="fill: rgb(148, 103, 189);"/><circle id="" cx="161.17277356638766" cy="135" r="4.802652729749464" style="fill: rgb(148, 103, 189);"/><circle id="" cx="148.38529327933674" cy="135" r="5.984827557301444" style="fill: rgb(148, 103, 189);"/><circle id="" cx="131.72151898734177" cy="135" r="2.0212174611483276" style="fill: rgb(148, 103, 189);"/><circle id="" cx="117.9367088607595" cy="135" r="5.310511993647416" style="fill: rgb(148, 103, 189);"/><circle id="" cx="107.21518987341773" cy="135" r="2.651326364874732" style="fill: rgb(148, 103, 189);"/><circle id="" cx="84.39046384259804" cy="135.00000111923214" r="0.5" style="fill: rgb(148, 103, 189);"/><circle id="" cx="74.41997254063851" cy="134.99999797862264" r="7.471094164200756" style="fill: rgb(148, 103, 189);"/><circle id="" cx="60.42574772197329" cy="135.00001042120144" r="4.524763092247536" style="fill: rgb(148, 103, 189);"/><circle id="" cx="46.59789332635722" cy="134.99999745360597" r="7.303091303374613" style="fill: rgb(148, 103, 189);"/></g><g id="labels"><g id="" transform="translate(451.8354430379747,135)"><text x="0" y="0" text-anchor="middle" dominant-baseline="text-before-edge" transform="translate(0,0)"/></g><g id="" transform="translate(442.992036649042,133.50948381628595)"><text x="0" y="0" text-anchor="middle" dominant-baseline="text-before-edge" transform="translate(0,0)"/></g><g id="" transform="translate(442.9853348633295,136.5095814433108)"><text x="0" y="0" text-anchor="middle" dominant-baseline="text-before-edge" transform="translate(0,0)"/></g><g id="" transform="translate(437.5571818073438,134.99749094155015)"><text x="0" y="0" text-anchor="middle" dominant-baseline="text-before-edge" transform="translate(0,0)"/></g><g id="" transform="translate(416.6075949367089,135)"><text x="0" y="0" text-anchor="middle" dominant-baseline="text-before-edge" transform="translate(0,0)"/></g><g id="" transform="translate(401.2911392405063,135)"><text x="0" y="0" text-anchor="middle" dominant-baseline="text-before-edge" transform="translate(0,0)"/></g><g id="" transform="translate(336.76595744443057,135)"><text x="0" y="0" text-anchor="middle" dominant-baseline="text-before-edge" transform="translate(0,0)"/></g><g id="" transform="translate(322.93910509283916,135)"><text x="0" y="0" text-anchor="middle" dominant-baseline="text-before-edge" transform="translate(0,0)"/></g><g id="" transform="translate(311.103986275042,135)"><text x="0" y="0" text-anchor="middle" dominant-baseline="text-before-edge" transform="translate(0,0)"/></g><g id="" transform="translate(299.5672677137691,135)"><text x="0" y="0" text-anchor="middle" dominant-baseline="text-before-edge" transform="translate(0,0)"/></g><g id="" transform="translate(268.4725779249604,135.02941874983983)"><text x="0" y="0" text-anchor="middle" dominant-baseline="text-before-edge" transform="translate(0,0)"/></g><g id="" transform="translate(258.5802877613804,129.79517609401327)"><text x="0" y="0" text-anchor="middle" dominant-baseline="text-before-edge" transform="translate(0,0)"/></g><g id="" transform="translate(250.47990551246875,135.31621847897762)"><text x="0" y="0" text-anchor="middle" dominant-baseline="text-before-edge" transform="translate(0,0)"/></g><g id="" transform="translate(241.0418906111935,132.67837073644884)"><text x="0" y="0" text-anchor="middle" dominant-baseline="text-before-edge" transform="translate(0,0)"/></g><g id="" transform="translate(237.18546918689484,128.57009903820418)"><text x="0" y="0" text-anchor="middle" dominant-baseline="text-before-edge" transform="translate(0,0)"/></g><g id="" transform="translate(236.52892134549222,138.74750412957246)"><text x="0" y="0" text-anchor="middle" dominant-baseline="text-before-edge" transform="translate(0,0)"/></g><g id="" transform="translate(224.51864975228344,134.22566001811956)"><text x="0" y="0" text-anchor="middle" dominant-baseline="text-before-edge" transform="translate(0,0)"/></g><g id="" transform="translate(171.10999870766267,135)"><text x="0" y="0" text-anchor="middle" dominant-baseline="text-before-edge" transform="translate(0,0)"/></g><g id="" transform="translate(161.17277356638766,135)"><text x="0" y="0" text-anchor="middle" dominant-baseline="text-before-edge" transform="translate(0,0)"/></g><g id="" transform="translate(148.38529327933674,135)"><text x="0" y="0" text-anchor="middle" dominant-baseline="text-before-edge" transform="translate(0,0)"/></g><g id="" transform="translate(131.72151898734177,135)"><text x="0" y="0" text-anchor="middle" dominant-baseline="text-before-edge" transform="translate(0,0)"/></g><g id="" transform="translate(117.9367088607595,135)"><text x="0" y="0" text-anchor="middle" dominant-baseline="text-before-edge" transform="translate(0,0)"/></g><g id="" transform="translate(107.21518987341773,135)"><text x="0" y="0" text-anchor="middle" dominant-baseline="text-before-edge" transform="translate(0,0)"/></g><g id="" transform="translate(84.39046384259804,135.00000111923214)"><text x="0" y="0" text-anchor="middle" dominant-baseline="text-before-edge" transform="translate(0,0)"/></g><g id="" transform="translate(74.41997254063851,134.99999797862264)"><text x="0" y="0" text-anchor="middle" dominant-baseline="text-before-edge" transform="translate(0,0)"/></g><g id="" transform="translate(60.42574772197329,135.00001042120144)"><text x="0" y="0" text-anchor="middle" dominant-baseline="text-before-edge" transform="translate(0,0)"/></g><g id="" transform="translate(46.59789332635722,134.99999745360597)"><text x="0" y="0" text-anchor="middle" dominant-baseline="text-before-edge" transform="translate(0,0)"/></g></g></g><g id="fury_partners-subscription-api"><g id="circles"><circle id="" cx="428.8607594936709" cy="225" r="9.627304766889967" style="fill: rgb(140, 86, 75);"/><circle id="" cx="378.3164556962025" cy="225" r="10" style="fill: rgb(140, 86, 75);"/><circle id="" cx="182.26582278481013" cy="225" r="3.9015456516873064" style="fill: rgb(140, 86, 75);"/><circle id="" cx="105.68354430379746" cy="225" r="2.0212174611483276" style="fill: rgb(140, 86, 75);"/></g><g id="labels"><g id="" transform="translate(428.8607594936709,225)"><text x="0" y="0" text-anchor="middle" dominant-baseline="text-before-edge" transform="translate(0,0)"/></g><g id="" transform="translate(378.3164556962025,225)"><text x="0" y="0" text-anchor="middle" dominant-baseline="text-before-edge" transform="translate(0,0)"/></g><g id="" transform="translate(182.26582278481013,225)"><text x="0" y="0" text-anchor="middle" dominant-baseline="text-before-edge" transform="translate(0,0)"/></g><g id="" transform="translate(105.68354430379746,225)"><text x="0" y="0" text-anchor="middle" dominant-baseline="text-before-edge" transform="translate(0,0)"/></g></g></g><g id="fury_loyal-communications"><g id="circles"><circle id="" cx="294.099884411854" cy="319.0507864943226" r="4.802652729749464" style="fill: rgb(255, 127, 14);"/><circle id="" cx="303.1671413010083" cy="311.3961357538917" r="5.063652383444984" style="fill: rgb(255, 127, 14);"/><circle id="" cx="282.47599951243956" cy="314.8857671269269" r="5.545307543166047" style="fill: rgb(255, 127, 14);"/><circle id="" cx="272.91211081409114" cy="315.11034144371905" r="2.0212174611483276" style="fill: rgb(255, 127, 14);"/></g><g id="labels"><g id="" transform="translate(294.099884411854,319.0507864943226)"><text x="0" y="0" text-anchor="middle" dominant-baseline="text-before-edge" transform="translate(0,0)"/></g><g id="" transform="translate(303.1671413010083,311.3961357538917)"><text x="0" y="0" text-anchor="middle" dominant-baseline="text-before-edge" transform="translate(0,0)"/></g><g id="" transform="translate(282.47599951243956,314.8857671269269)"><text x="0" y="0" text-anchor="middle" dominant-baseline="text-before-edge" transform="translate(0,0)"/></g><g id="" transform="translate(272.91211081409114,315.11034144371905)"><text x="0" y="0" text-anchor="middle" dominant-baseline="text-before-edge" transform="translate(0,0)"/></g></g></g><g id="fury_loyal-whitelist-api"><g id="circles"><circle id="" cx="570.4976021979006" cy="403.6870941147823" r="0.5" style="fill: rgb(44, 160, 44);"/><circle id="" cx="569.0467015995677" cy="406.3129058852177" r="0.5" style="fill: rgb(44, 160, 44);"/></g><g id="labels"><g id="" transform="translate(570.4976021979006,403.6870941147823)"><text x="0" y="0" text-anchor="middle" dominant-baseline="text-before-edge" transform="translate(0,0)"/></g><g id="" transform="translate(569.0467015995677,406.3129058852177)"><text x="0" y="0" text-anchor="middle" dominant-baseline="text-before-edge" transform="translate(0,0)"/></g></g></g><g id="fury_connectivity-core"><g id="circles"><circle id="" cx="582.0253164556963" cy="495" style="fill: rgb(31, 119, 180);"/><circle id="" cx="583.389397579069" cy="494.9944374576396" r="0.5" style="fill: rgb(31, 119, 180);"/><circle id="" cx="580.3895342568161" cy="495.00413634474035" r="0.5" style="fill: rgb(31, 119, 180);"/><circle id="" cx="579.6392778851365" cy="492.09965058867436" r="0.5" style="fill: rgb(31, 119, 180);"/><circle id="" cx="579.6337967246723" cy="497.90720105909884" r="0.5" style="fill: rgb(31, 119, 180);"/><circle id="" cx="573.9315967590045" cy="494.9980500857818" r="3.9015456516873064" style="fill: rgb(31, 119, 180);"/><circle id="" cx="568.6762855561808" cy="498.653504661838" r="0.5" style="fill: rgb(31, 119, 180);"/><circle id="" cx="568.6716320217052" cy="491.34929482795104" r="0.5" style="fill: rgb(31, 119, 180);"/><circle id="" cx="566.008723985672" cy="495.0031049109496" r="2.0212174611483276" style="fill: rgb(31, 119, 180);"/><circle id="" cx="528.1539884531139" cy="495" r="8.404477796209516" style="fill: rgb(31, 119, 180);"/><circle id="" cx="511.764781651072" cy="495" r="5.984827557301444" style="fill: rgb(31, 119, 180);"/><circle id="" cx="497.007813821922" cy="495" r="6.772140271848485" style="fill: rgb(31, 119, 180);"/></g><g id="labels"><g id="" transform="translate(582.0253164556963,495)"><text x="0" y="0" text-anchor="middle" dominant-baseline="text-before-edge" transform="translate(0,0)"/></g><g id="" transform="translate(583.389397579069,494.9944374576396)"><text x="0" y="0" text-anchor="middle" dominant-baseline="text-before-edge" transform="translate(0,0)"/></g><g id="" transform="translate(580.3895342568161,495.00413634474035)"><text x="0" y="0" text-anchor="middle" dominant-baseline="text-before-edge" transform="translate(0,0)"/></g><g id="" transform="translate(579.6392778851365,492.09965058867436)"><text x="0" y="0" text-anchor="middle" dominant-baseline="text-before-edge" transform="translate(0,0)"/></g><g id="" transform="translate(579.6337967246723,497.90720105909884)"><text x="0" y="0" text-anchor="middle" dominant-baseline="text-before-edge" transform="translate(0,0)"/></g><g id="" transform="translate(573.9315967590045,494.9980500857818)"><text x="0" y="0" text-anchor="middle" dominant-baseline="text-before-edge" transform="translate(0,0)"/></g><g id="" transform="translate(568.6762855561808,498.653504661838)"><text x="0" y="0" text-anchor="middle" dominant-baseline="text-before-edge" transform="translate(0,0)"/></g><g id="" transform="translate(568.6716320217052,491.34929482795104)"><text x="0" y="0" text-anchor="middle" dominant-baseline="text-before-edge" transform="translate(0,0)"/></g><g id="" transform="translate(566.008723985672,495.0031049109496)"><text x="0" y="0" text-anchor="middle" dominant-baseline="text-before-edge" transform="translate(0,0)"/></g><g id="" transform="translate(528.1539884531139,495)"><text x="0" y="0" text-anchor="middle" dominant-baseline="text-before-edge" transform="translate(0,0)"/></g><g id="" transform="translate(511.764781651072,495)"><text x="0" y="0" text-anchor="middle" dominant-baseline="text-before-edge" transform="translate(0,0)"/></g><g id="" transform="translate(497.007813821922,495)"><text x="0" y="0" text-anchor="middle" dominant-baseline="text-before-edge" transform="translate(0,0)"/></g></g></g></g></g></svg>